# Blender v2.79 (sub 0) OBJ File: 'cube.blend'
# www.blender.org
mtllib cube.mtl
o Cube_Cube.001
v -0.200000 0.900000 0.480000
v 0.200000 0.900000 0.480000
v -0.200000 0.900000 -0.480000
v 0.200000 0.900000 -0.480000
v -0.200000 -0.900000 0.480000
v 0.200000 -0.900000 0.480000
v -0.200000 -0.900000 -0.480000
v 0.200000 -0.900000 -0.480000
vt 0.000100 0.998177
vt 0.000100 0.000100
vt 0.999900 0.000100
vt 0.999900 0.998177
vt 0.999903 0.944722
vt 0.000097 0.944722
vt 0.000097 0.000097
vt 0.999902 0.000097
vt 0.955933 0.000098
vt 0.955933 0.999902
vt 0.000098 0.999902
vt 0.000098 0.000098
vt 0.984827 0.000099
vt 0.984826 0.999901
vt 0.000101 0.999901
vt 0.000100 0.996476
vt 0.000100 0.000100
vt 0.999900 0.000100
vt 0.999900 0.996476
vt 0.999900 0.000100
vt 0.999900 0.996476
vt 0.000100 0.996476
vt 0.000100 0.000100
vn -0.0000 1.0000 0.0000
vn -0.0000 0.0000 -1.0000
vn 0.0000 -1.0000 0.0000
vn 0.0000 0.0000 1.0000
vn -1.0000 0.0000 0.0000
vn 1.0000 -0.0000 0.0000
usemtl Material.006
s off
f 1/1/1 2/2/1 4/3/1 3/4/1
usemtl Material.007
f 3/5/2 4/6/2 8/7/2 7/8/2
usemtl Material.008
f 7/9/3 8/10/3 6/11/3 5/12/3
usemtl Material.009
f 5/12/4 6/13/4 2/14/4 1/15/4
usemtl Material.010
f 3/16/5 7/17/5 5/18/5 1/19/5
usemtl Material.011
f 8/20/6 4/21/6 2/22/6 6/23/6
