# Blender v2.79 (sub 0) OBJ File: 'karellia.blend'
# www.blender.org
mtllib cube.mtl
o Cube
v -1.500000 7.300000 7.300000
v 1.500000 7.300000 7.300000
v -1.500000 7.300000 -7.300000
v 1.500000 7.300000 -7.300000
v -1.500000 -7.300000 7.300000
v 1.500000 -7.300000 7.300000
v -1.500000 -7.300000 -7.300000
v 1.500000 -7.300000 -7.300000
vt 0.000095 0.896097
vt 0.000095 0.000096
vt 0.999905 0.000095
vt 0.999905 0.896097
vt 0.950255 0.999903
vt 0.000098 0.999902
vt 0.000097 0.000097
vt 0.950256 0.000097
vt 0.999905 0.000095
vt 0.999905 0.896096
vt 0.000095 0.896097
vt 0.000095 0.000095
vt 0.950256 0.000098
vt 0.950256 0.999903
vt 0.000097 0.999902
vt 0.000100 0.995977
vt 0.000100 0.000100
vt 0.999900 0.000100
vt 0.999900 0.995977
vt 0.999901 0.000099
vt 0.999901 0.978107
vt 0.000099 0.978107
vt 0.000099 0.000099
vn 0.0000 1.0000 0.0000
vn 0.0000 0.0000 -1.0000
vn 0.0000 -1.0000 0.0000
vn 0.0000 0.0000 1.0000
vn -1.0000 0.0000 0.0000
vn 1.0000 -0.0000 0.0000
usemtl Material
s off
f 1/1/1 2/2/1 4/3/1 3/4/1
usemtl Material.001
f 3/5/2 4/6/2 8/7/2 7/8/2
usemtl Material.002
f 7/9/3 8/10/3 6/11/3 5/12/3
usemtl Material.003
f 5/12/4 6/13/4 2/14/4 1/15/4
usemtl Material.004
f 3/16/5 7/17/5 5/18/5 1/19/5
usemtl Material.005
f 8/20/6 4/21/6 2/22/6 6/23/6
